PathFileType	4	(X/Y/Z)	T1_P2_Vision_NoMovement_1_0-732.trc
DataRate	CameraRate	NumFrames	NumMarkers	Units	OrigDataRate	OrigDataStartFrame	OrigNumFrames
60	60	4	27	m	60	274	732
Frame#	Time	RHip			RKnee			RAnkle			RBigToe			RSmallToe			RHeel			LHip			LKnee			LAnkle			LBigToe			LSmallToe			LHeel			Neck			Head			Nose			RShoulder			RElbow			RWrist			RThumb			RIndex			RPinky			LShoulder			LElbow			LWrist			LThumb			LIndex			LPinky		
		X1	Y1	Z1	X2	Y2	Z2	X3	Y3	Z3	X4	Y4	Z4	X5	Y5	Z5	X6	Y6	Z6	X7	Y7	Z7	X8	Y8	Z8	X9	Y9	Z9	X10	Y10	Z10	X11	Y11	Z11	X12	Y12	Z12	X13	Y13	Z13	X14	Y14	Z14	X15	Y15	Z15	X16	Y16	Z16	X17	Y17	Z17	X18	Y18	Z18	X19	Y19	Z19	X20	Y20	Z20	X21	Y21	Z21	X22	Y22	Z22	X23	Y23	Z23	X24	Y24	Z24	X25	Y25	Z25	X26	Y26	Z26	X27	Y27	Z27
275	4.583333333333333	444.00854424821995	3644.521441685065	625.5263821268196	826.1953342599227	3695.0091493804316	643.4295004795456	1212.5771303203544	3734.293092160033	676.7019292308078	1284.8247544696133	3623.5368205097593	643.6091847136918	1288.465456695446	3685.5583730225426	604.404386751377	1287.7654599238176	3819.1535192117453	747.319882852934	464.29321906553105	3601.3989558577614	845.9002023448232	828.7336232392882	3552.1024864401165	828.6059258254754	1238.1076173578797	3676.9148612364793	855.5049380406829	1304.0647632871267	3538.4632247680265	800.7500953024538	1289.1698844775883	3537.0445254261845	847.8670976773235	1267.3859563711057	3705.666663248513	855.6492518585235	-125.76289416387138	3597.8214180909263	753.8488183872887	-390.8518709832853	3587.269084967125	741.5905549413502	-251.30510289367243	3453.392868762499	712.8646953556425	-37.07276150176082	3660.747466220907	593.762266334897	201.53989820420782	3635.4509913938446	521.1868072403769	354.22436756542874	3498.6822234014944	612.8056505375428	440.5928454856774	3465.1487633630627	705.4380465021744	467.3576863661026	3466.5933296342673	706.797619709928	485.2564236585587	3457.6786127972377	668.6427349598225	-33.51136404495514	3482.2763967815717	888.5696339608278	229.59092254593497	3485.121858770588	917.2839138852817	346.35159138551	3394.67355556711	691.5340393033355	405.02008506496713	3412.1219774371657	595.8177083516725	442.7939548432658	3418.35696338798	596.3667597686481	464.50635387441383	3417.9696856053065	655.9010386354194
276	4.6	443.388503562592	3645.3096283756017	625.9047851598596	826.4228301433741	3695.873826220187	643.988270168796	1212.8061719260918	3734.296501482297	676.7212651473678	1285.4102804253403	3626.7435242863776	644.4050415562314	1288.4269884509827	3685.5683650319793	604.4254994938792	1287.3258319218498	3818.7866895092134	747.2242356843744	463.6214485973675	3602.160135103387	846.3458595545507	830.212936285849	3549.833077519693	828.8428629805455	1238.751423207274	3676.9093578766615	855.6701788855099	1302.8833070101223	3537.115064639841	799.7277909655988	1289.2812229918673	3536.6099357757594	847.6371875409596	1270.1570447642682	3707.5157572987778	856.6068068780778	-125.809831032493	3597.6868795948953	753.8198523606123	-391.31546150307156	3586.25128967329	741.1288395971357	-251.40698995457655	3453.356390944396	712.8048573566268	-36.981811456108915	3662.156705988018	594.9297568677348	201.9998577037382	3640.9490822661987	522.4242466245611	354.2288958944222	3499.0720182215473	612.2504554231334	437.0570504457072	3463.525033161506	707.1133324866151	463.7162307920678	3465.2201800720013	707.596794190563	481.8580021377428	3454.636940269188	668.1841159893411	-33.11731301500326	3483.710637944499	889.3773200150922	229.9232155045201	3483.9808968388643	915.6064711049899	346.3908170064302	3397.3732756530053	692.5800338497137	404.71947758430247	3414.060121406881	599.652865129566	440.97261038607917	3418.3031931618343	598.7044017700573	461.35697384897844	3418.27529280154	652.8123479577089
277	4.616666666666666	443.0829544610122	3645.499221144384	626.5776151555547	826.7155969784608	3696.355145633337	644.9746341949126	1213.8160549045303	3735.0729217495345	676.451540187584	1285.9139000712134	3628.467409030709	644.9466256318588	1288.459167678044	3685.5845581005533	604.4494304538753	1288.0348893961311	3819.258322768347	747.3480227006381	463.17054598875785	3602.4978420504594	846.4879906424446	833.0193082693459	3550.5717714713132	829.412020433915	1238.4269860346672	3675.7607118161636	854.6962219368844	1302.2693692669684	3535.2898325892224	797.926818633731	1289.1734143186006	3536.7537498207107	847.759253476412	1273.0809229086155	3710.3408611528025	858.0052109408823	-125.85411979925561	3597.6038961113995	753.7965042588005	-392.5845948886163	3586.0275199300604	741.1000758036879	-251.95818647011794	3453.7088211472433	712.9609047669886	-37.32723043695558	3667.275511974765	598.9770537577458	202.21400921097228	3643.1501389206205	522.9438215731884	354.0341482373672	3501.6166947075685	611.4418932202293	433.30406829919013	3461.0259053352374	707.4711610132531	459.44275589734247	3464.0160413311846	708.8057109154678	478.66367621512507	3452.50356432597	669.1690734508968	-32.39095146484145	3485.9728263716956	891.2734191863132	230.41477204980637	3481.442251237331	913.9665254310288	346.83633048323475	3399.458219502749	693.5193095892178	402.7307103087993	3415.431478802881	602.7139999529725	439.6173924766598	3417.761699016807	600.1965084088035	459.1007217463307	3420.3570222294875	651.0187652210143
278	4.633333333333334	443.4416050428887	3644.4158013809156	627.5329412706808	827.6252763410223	3696.61192528823	644.9008174334555	1214.5756320892128	3736.063328331002	675.8413401435577	1284.9695495953918	3626.400817047975	644.3478574175792	1288.5322225735117	3685.563163662936	604.4329083207906	1289.0403287156175	3819.9886983855663	747.5580194327002	463.43642026387926	3602.09555874879	846.1507613754991	836.0868881784108	3554.4282832137364	830.2497768535483	1238.1917490977232	3675.305099910118	854.2597243382647	1302.63730693213	3534.6348115057526	796.9344940286874	1289.1343693564636	3537.026396135379	847.9627846428851	1274.7812731192012	3712.8063419523623	859.0097561078707	-125.85860106742032	3597.613791596367	753.7594242394674	-393.23401658568537	3586.8541602514115	741.5748579622065	-253.0512624629632	3454.562368372185	713.414995358071	-38.292826240854616	3674.441059864199	604.5110891079287	202.1475055519449	3643.345881202918	523.0407006300044	353.33236041628913	3506.8743283798017	610.9388113256692	429.4593133333809	3458.99951356621	707.5221710056196	455.12605525036787	3463.5588823806947	709.5266365641746	476.72410027440526	3451.6636925284724	670.400920512639	-31.89890413154882	3488.3687831213138	894.1657869264184	230.38902398033687	3476.0517115626644	911.8342484896295	346.8953670940614	3399.8621772500915	693.6544335717389	399.18413093246767	3415.4841152963245	604.0163286441068	438.5146095561848	3416.333533861766	600.6185579461181	458.24526953380627	3422.1831266260183	650.7259353483478
